<svg width="116" height="32" viewBox="0 0 116 32" fill="none" xmlns="http://www.w3.org/2000/svg">
<g clip-path="url(#clip0_217_6751)">
<path d="M107.739 23.0043H114.574V20.7832H107.738C107.996 21.5011 107.996 22.2864 107.738 23.0043" fill="#1D1D1B"/>
<path d="M47.1129 8.99425H41.4364V23.0007H46.7126C50.1149 23.0007 51.456 21.46 51.456 18.8187C51.456 16.4767 49.7345 15.6762 49.7345 15.6762C50.1951 15.3647 50.5714 14.944 50.8298 14.4517C51.0882 13.9595 51.2208 13.4109 51.2156 12.855C51.2156 10.4931 49.8945 8.99219 47.1129 8.99219V8.99425ZM47.3326 11.2133C48.3935 11.2133 48.9119 11.8937 48.9119 12.8948C48.9119 14.0352 48.171 14.636 47.0903 14.636H43.758V11.2167L47.3326 11.2133ZM43.758 16.8372H47.0923C48.6538 16.8372 49.0946 17.7572 49.0946 18.8187C49.0946 20.139 48.6139 20.7796 46.7929 20.7796H43.758V16.8372ZM61.5998 8.99425H59.2577V23.0007H61.5998V8.99425ZM70.9479 8.99425V23.0007H80.0061V20.783H73.2893V8.99425H70.9479ZM87.6815 8.99425V23.0007H96.7398V20.783H90.0195V8.99425H87.6815Z" fill="#1D1D1B"/>
<path d="M111.306 10.9744L111.12 11.2167L104.528 19.7916C104.122 19.8138 103.73 19.9535 103.401 20.1938C103.073 20.434 102.82 20.7644 102.676 21.145C102.531 21.5257 102.5 21.9401 102.586 22.3381C102.672 22.7362 102.871 23.1007 103.16 23.3876C103.449 23.6745 103.815 23.8714 104.214 23.9544C104.613 24.0374 105.027 24.0031 105.407 23.8554C105.786 23.7078 106.115 23.4533 106.353 23.1227C106.59 22.7921 106.727 22.3996 106.746 21.9928C106.765 21.637 106.691 21.2823 106.533 20.9629L107.305 19.9646L113.299 12.2061C113.749 12.189 114.182 12.0278 114.533 11.7463C114.885 11.4647 115.137 11.0777 115.252 10.6422C115.367 10.2067 115.339 9.74574 115.172 9.32728C115.006 8.90883 114.709 8.55497 114.326 8.31784C113.943 8.08072 113.494 7.97286 113.045 8.01015C112.596 8.04745 112.171 8.22793 111.833 8.525C111.494 8.82208 111.26 9.22004 111.164 9.66027C111.069 10.1005 111.118 10.5597 111.303 10.9702" fill="#1D1D1B"/>
<path d="M110.129 8.99414H103.501V11.2153H110.129C109.872 10.4973 109.872 9.71212 110.129 8.99414Z" fill="#1D1D1B"/>
<path d="M21.6606 0H10.3394C4.6291 0 0 4.6291 0 10.3394V21.6606C0 27.3709 4.6291 32 10.3394 32H21.6606C27.3709 32 32 27.3709 32 21.6606V10.3394C32 4.6291 27.3709 0 21.6606 0Z" fill="#0065FF"/>
<path d="M18.4035 10.9435L18.2154 11.1886L11.5466 19.8671C11.09 19.8925 10.6536 20.0642 10.3022 20.357C9.95076 20.6497 9.70298 21.0478 9.59555 21.4923C9.48812 21.9369 9.52675 22.4042 9.70571 22.8251C9.88468 23.246 10.1945 23.598 10.5892 23.8291C10.9839 24.0602 11.4425 24.1579 11.8972 24.108C12.3518 24.058 12.7783 23.8629 13.1134 23.5517C13.4485 23.2404 13.6744 22.8295 13.7576 22.3798C13.8409 21.9301 13.7771 21.4655 13.5757 21.0549L14.3523 20.0415L20.4188 12.191C20.8749 12.1745 21.3136 12.0119 21.6703 11.7271C22.0269 11.4423 22.2825 11.0504 22.3994 10.6093C22.5164 10.1682 22.4884 9.70113 22.3197 9.2771C22.1509 8.85307 21.8504 8.49449 21.4623 8.25428C21.0743 8.01406 20.6193 7.90492 20.1645 7.94296C19.7096 7.98099 19.2791 8.1642 18.9363 8.46553C18.5936 8.76687 18.3568 9.17039 18.2608 9.61656C18.1649 10.0627 18.2149 10.5279 18.4035 10.9435ZM17.2135 8.9407H10.507V11.1886H17.2149C16.9546 10.4619 16.9546 9.66739 17.2149 8.9407H17.2135ZM14.7931 23.1154H21.7104V20.8675H14.7924C15.0532 21.5941 15.0532 22.3888 14.7924 23.1154H14.7931Z" fill="white"/>
</g>
<defs>
<clipPath id="clip0_217_6751">
<rect width="115.328" height="32" fill="white"/>
</clipPath>
</defs>
</svg>
