<svg width="24" height="24" viewBox="0 0 24 24" fill="none" xmlns="http://www.w3.org/2000/svg">
<path fill-rule="evenodd" clip-rule="evenodd" d="M14.1334 13.264C14.4158 13.416 14.6337 13.656 14.7869 13.896C15.0855 14.392 15.0613 15 14.7708 15.536L14.206 16.496C13.9075 17.008 13.3508 17.328 12.778 17.328C12.4956 17.328 12.181 17.248 11.9228 17.088C11.713 16.952 11.471 16.904 11.2128 16.904C10.414 16.904 9.74439 17.568 9.72019 18.36C9.72019 19.28 8.97793 20 8.0501 20H6.95284C6.01694 20 5.27467 19.28 5.27467 18.36C5.25854 17.568 4.58889 16.904 3.79015 16.904C3.5239 16.904 3.28186 16.952 3.08015 17.088C2.82198 17.248 2.49925 17.328 2.22494 17.328C1.64404 17.328 1.08734 17.008 0.788819 16.496L0.232121 15.536C-0.0663982 15.016 -0.0825344 14.392 0.215985 13.896C0.345074 13.656 0.587117 13.416 0.861432 13.264C1.08734 13.152 1.23256 12.968 1.36972 12.752C1.77313 12.064 1.53108 11.16 0.845295 10.752C0.046555 10.296 -0.211624 9.28 0.248257 8.488L0.788819 7.544C1.25677 6.752 2.25721 6.472 3.06402 6.936C3.76594 7.32 4.67764 7.064 5.08911 6.384C5.2182 6.16 5.29081 5.92 5.27467 5.68C5.25854 5.368 5.34729 5.072 5.50058 4.832C5.7991 4.336 6.33966 4.016 6.92863 4H8.06623C8.66327 4 9.20383 4.336 9.50235 4.832C9.64758 5.072 9.74439 5.368 9.72019 5.68C9.70405 5.92 9.77667 6.16 9.90576 6.384C10.3172 7.064 11.2289 7.32 11.9389 6.936C12.7377 6.472 13.7462 6.752 14.206 7.544L14.7466 8.488C15.2146 9.28 14.9564 10.296 14.1496 10.752C13.4638 11.16 13.2217 12.064 13.6332 12.752C13.7623 12.968 13.9075 13.152 14.1334 13.264ZM5.2182 12.008C5.2182 13.264 6.24284 14.264 7.50953 14.264C8.77622 14.264 9.77667 13.264 9.77667 12.008C9.77667 10.752 8.77622 9.744 7.50953 9.744C6.24284 9.744 5.2182 10.752 5.2182 12.008Z" fill="#1F78FF"/>
</svg>
